<svg width="80" height="80" viewBox="0 0 80 80" fill="none" xmlns="http://www.w3.org/2000/svg">
<path fill-rule="evenodd" clip-rule="evenodd" d="M36.6625 46.0802H43.4808L56.7845 78.6648L55.7172 79.1006L42.7062 47.2331H37.4339L24.2815 79.1026L23.2158 78.6628L36.6625 46.0802Z" fill="white"/>
<path fill-rule="evenodd" clip-rule="evenodd" d="M36.6625 33.5796H43.4808L56.7845 0.995007L55.7172 0.559231L42.7062 32.4267H37.4339L24.2815 0.557217L23.2158 0.997021L36.6625 33.5796Z" fill="white"/>
<path fill-rule="evenodd" clip-rule="evenodd" d="M33.7495 36.4928L33.7495 43.3111L1.16538 56.615L0.729613 55.5477L32.5967 42.5366L32.5967 37.2642L0.7276 24.1116L1.1674 23.0459L33.7495 36.4928Z" fill="white"/>
<path fill-rule="evenodd" clip-rule="evenodd" d="M46.2505 36.4928L46.2505 43.3111L78.8346 56.6151L79.2704 55.5477L47.4033 42.5366L47.4033 37.2642L79.2724 24.1116L78.8326 23.0459L46.2505 36.4928Z" fill="white"/>
<path d="M17.2058 39.7537C17.2058 38.9775 17.3644 38.2846 17.6815 37.6753C18.0071 37.0659 18.4537 36.5902 19.0213 36.2479C19.5972 35.9057 20.2483 35.7346 20.9745 35.7346C21.851 35.7346 22.5313 35.9516 23.0154 36.3856C23.4996 36.8114 23.7416 37.4165 23.7416 38.2012C23.7416 38.6937 23.6456 39.207 23.4536 39.7412C23.2617 40.2754 22.9987 40.7596 22.6648 41.1936H18.4578V44.0609H17.2058V39.7537ZM21.9261 40.0793C22.3017 39.4783 22.4895 38.8564 22.4895 38.2137C22.4895 37.8214 22.3476 37.5042 22.0638 37.2621C21.7884 37.0117 21.4294 36.8865 20.987 36.8865C20.4946 36.8865 20.0563 37.0075 19.6724 37.2496C19.2884 37.4917 18.9879 37.8297 18.7709 38.2638C18.5622 38.6978 18.4578 39.1945 18.4578 39.7537V40.0793H21.9261Z" fill="white"/>
<path d="M40.0638 24.9868C39.2458 24.9868 38.5113 24.8031 37.8602 24.4358C37.2174 24.0686 36.7124 23.5636 36.3452 22.9208C35.9862 22.2697 35.8068 21.5394 35.8068 20.7297C35.8068 19.9283 35.9904 19.2063 36.3577 18.5636C36.7333 17.9125 37.2425 17.4033 37.8852 17.036C38.5363 16.6604 39.2625 16.4726 40.0638 16.4726C40.8819 16.4726 41.6123 16.6562 42.255 17.0235C42.9061 17.3908 43.4111 17.9 43.77 18.5511C44.1373 19.1938 44.3209 19.92 44.3209 20.7297C44.3209 21.531 44.1331 22.2572 43.7575 22.9083C43.3902 23.551 42.881 24.0602 42.23 24.4358C41.5872 24.8031 40.8652 24.9868 40.0638 24.9868ZM37.1215 20.7297C37.1215 21.3223 37.2467 21.8524 37.4971 22.3198C37.7475 22.7873 38.0939 23.1545 38.5363 23.4217C38.9871 23.6804 39.4962 23.8098 40.0638 23.8098C40.6315 23.8098 41.1365 23.6804 41.5789 23.4217C42.0296 23.1545 42.3802 22.7873 42.6306 22.3198C42.881 21.8524 43.0062 21.3223 43.0062 20.7297C43.0062 20.137 42.881 19.607 42.6306 19.1395C42.3802 18.6721 42.0296 18.309 41.5789 18.0502C41.1365 17.7831 40.6315 17.6496 40.0638 17.6496C39.4962 17.6496 38.9871 17.7831 38.5363 18.0502C38.0939 18.309 37.7475 18.6721 37.4971 19.1395C37.2467 19.607 37.1215 20.137 37.1215 20.7297Z" fill="white"/>
<path d="M56.041 44.0609C56.4667 43.2429 56.9676 42.3915 57.5435 41.5067C58.1195 40.6219 58.7121 39.7913 59.3215 39.015C58.4617 37.9215 57.5477 36.8907 56.5794 35.9224H58.2447C58.6454 36.3397 59.1838 36.97 59.8599 37.813L60.0853 38.101C60.6696 37.2913 61.2247 36.6861 61.7505 36.2855C62.2848 35.8848 62.7981 35.7137 63.2906 35.7721L63.6412 36.9491C63.2906 36.9324 62.9651 37.0033 62.6646 37.1619C62.3641 37.3205 62.0761 37.5376 61.8006 37.813C61.5335 38.0885 61.208 38.4599 60.824 38.9274C62.2347 40.7805 63.3365 42.4916 64.1295 44.0609H62.7146C61.7964 42.4165 60.9075 41.0392 60.0477 39.929C59.046 41.2813 58.1696 42.6586 57.4183 44.0609H56.041Z" fill="white"/>
<path d="M41.4136 59.8297C40.8459 60.5643 40.1489 61.2154 39.3226 61.783C38.4962 62.3422 37.6657 62.6219 36.8309 62.6219C36.5805 62.6219 36.3718 62.5593 36.2049 62.4341C36.0463 62.3005 35.967 62.1294 35.967 61.9207C35.967 61.2947 36.1089 60.6269 36.3927 59.9174C36.6765 59.2079 37.098 58.515 37.6573 57.8389C38.2166 57.1628 38.8885 56.5785 39.6732 56.086L38.8468 54.3206H40.2366L44.0304 62.4591H42.6406L41.4136 59.8297ZM37.2316 61.1945C37.2316 61.278 37.2525 61.3406 37.2942 61.3823C37.3443 61.4157 37.4069 61.4241 37.482 61.4074C38.083 61.2655 38.6924 60.9399 39.3101 60.4307C39.9277 59.9132 40.4494 59.3289 40.8752 58.6778L40.174 57.1628C39.356 57.697 38.7007 58.3105 38.2082 59.0034C37.7157 59.6962 37.3944 60.3973 37.2441 61.1069L37.2316 61.1945Z" fill="white"/>
</svg>
