<svg width="72" height="72" viewBox="0 0 72 72" fill="none" xmlns="http://www.w3.org/2000/svg">
<path fill-rule="evenodd" clip-rule="evenodd" d="M32.9044 41.5498H38.9584L50.771 70.4822L49.8233 70.8691L38.2707 42.5734H33.5893L21.911 70.8709L20.9648 70.4804L32.9044 41.5498Z" fill="#B30000"/>
<path fill-rule="evenodd" clip-rule="evenodd" d="M32.9044 30.4503H38.9584L50.771 1.51789L49.8233 1.13096L38.2707 29.4266H33.5893L21.911 1.12917L20.9648 1.51968L32.9044 30.4503Z" fill="#B30000"/>
<path fill-rule="evenodd" clip-rule="evenodd" d="M30.3174 33.037L30.3174 39.091L1.38542 50.9038L0.998494 49.9561L29.2938 38.4033L29.2938 33.7219L0.996708 22.0434L1.38721 21.0972L30.3174 33.037Z" fill="#B30000"/>
<path fill-rule="evenodd" clip-rule="evenodd" d="M41.417 33.037L41.417 39.091L70.349 50.9038L70.7359 49.9561L42.4406 38.4033L42.4406 33.7219L70.7377 22.0434L70.3472 21.0972L41.417 33.037Z" fill="#B30000"/>
</svg>
