<svg width="260" height="66" viewBox="0 0 260 66" fill="none" xmlns="http://www.w3.org/2000/svg">
<path d="M80.2697 28.6351H82.7333L84.0042 25.3371H90.3784L91.6493 28.6351H94.1911L88.7946 15.1344H85.6662L80.2697 28.6351ZM84.7277 23.4663L87.1522 17.1402H87.1913L89.6549 23.4663H84.7277Z" fill="black"/>
<path d="M97.812 28.6351H100.158V23.6206H102.7C105.985 23.6206 107.979 22.0005 107.979 19.3775C107.979 16.7352 105.985 15.1344 102.7 15.1344H97.812V28.6351ZM100.158 21.7305V17.1016H102.72C104.538 17.1016 105.633 17.9888 105.633 19.416C105.633 20.824 104.538 21.7305 102.72 21.7305H100.158Z" fill="black"/>
<path d="M109.999 28.6351H112.716L116.705 23.4663L120.655 28.6351H123.49L118.23 21.7305L123.275 15.1344H120.538L116.783 20.0718L113.01 15.1344H110.194L115.2 21.7883L109.999 28.6351Z" fill="black"/>
<path d="M124.899 28.6351H127.363L128.634 25.3371H135.008L136.279 28.6351H138.821L133.424 15.1344H130.296L124.899 28.6351ZM129.357 23.4663L131.782 17.1402H131.821L134.285 23.4663H129.357Z" fill="black"/>
<path d="M142.442 28.6351H144.788V22.9648H151.827V28.6351H154.173V15.1344H151.827V20.8047H144.788V15.1344H142.442V28.6351Z" fill="black"/>
<path d="M159.654 28.6351H162V17.2945H169.039V15.1344H159.654V28.6351Z" fill="black"/>
<path d="M172.761 28.6351H182.264V26.5907H175.068V22.9069H179.644V20.8625H175.068V17.1788H181.579V15.1344H172.761V28.6351Z" fill="black"/>
<path d="M185.668 28.8859C187.173 28.8859 187.995 28.2301 188.581 26.9379C189.363 25.2214 189.52 21.2483 189.52 18.2974V17.3716H195.19V28.6351H197.536V15.1344H187.271V17.3138C187.271 20.7661 187.154 23.7941 186.724 25.3371C186.509 26.1278 186.039 26.5329 185.453 26.5329C184.925 26.5329 184.592 26.4943 184.162 26.3979V28.6351C184.436 28.7509 184.905 28.8859 185.668 28.8859Z" fill="black"/>
<path d="M203.004 28.6351H208.029C211.256 28.6351 213.25 27.015 213.25 24.392C213.25 21.7497 211.256 20.1489 208.029 20.1489H205.312V15.1344H203.004V28.6351ZM205.312 26.6293V22.0583H208.029C209.809 22.0583 210.904 22.9262 210.904 24.3342C210.904 25.7421 209.809 26.6293 208.029 26.6293H205.312Z" fill="black"/>
<path d="M223.354 28.9004C221.975 28.9004 220.761 28.6079 219.713 28.023C218.679 27.4244 217.879 26.6014 217.314 25.5539C216.748 24.5064 216.465 23.3228 216.465 22.0033C216.465 20.7517 216.727 19.5954 217.251 18.5343C217.776 17.4732 218.513 16.6298 219.465 16.004C220.417 15.3782 221.499 15.0653 222.713 15.0653C223.306 15.0789 223.816 15.1538 224.244 15.2898C224.685 15.4258 225.14 15.6095 225.609 15.8407C225.857 15.9768 226.064 16.0788 226.23 16.1468C226.409 16.2012 226.574 16.2285 226.726 16.2285C226.919 16.2285 227.05 16.1808 227.119 16.0856C227.188 15.9904 227.223 15.7931 227.223 15.4938V15.0449L229.209 15.5347C229.264 16.3781 229.064 17.0243 228.609 17.4732C228.167 17.9085 227.547 18.1262 226.747 18.1262C226.43 18.1262 226.112 18.0786 225.795 17.9833C225.478 17.8881 225.099 17.7453 224.657 17.5548C224.23 17.3644 223.851 17.2215 223.52 17.1263C223.202 17.0175 222.878 16.9631 222.547 16.9631C221.472 16.9631 220.582 17.3236 219.879 18.0446C219.175 18.752 218.769 19.711 218.658 20.9218H224.761V22.8399H218.658C218.741 23.6425 218.982 24.3567 219.382 24.9825C219.796 25.6083 220.341 26.098 221.017 26.4517C221.692 26.8054 222.471 26.9823 223.354 26.9823C224.471 26.9823 225.416 26.6762 226.188 26.064C226.961 25.4518 227.457 24.6152 227.678 23.5541L229.56 24.1459C229.409 25.0573 229.043 25.8736 228.464 26.5946C227.898 27.3156 227.167 27.8801 226.271 28.2882C225.388 28.6964 224.416 28.9004 223.354 28.9004Z" fill="black"/>
<path d="M233.51 28.6351H235.856V23.6206H238.398C241.683 23.6206 243.677 22.0005 243.677 19.3775C243.677 16.7352 241.683 15.1344 238.398 15.1344H233.51V28.6351ZM235.856 21.7305V17.1016H238.418C240.236 17.1016 241.331 17.9888 241.331 19.416C241.331 20.824 240.236 21.7305 238.418 21.7305H235.856Z" fill="black"/>
<path d="M247.877 28.6351H250.321L257.654 18.471V28.6351H260V15.1344H257.517L250.224 25.2407V15.1344H247.877V28.6351Z" fill="black"/>
<path d="M81.6579 51.0156H84.0042V45.3453H86.331L90.5152 51.0156H93.409L88.3058 44.0916L93.1548 37.5148H90.5348L86.3505 43.1852H84.0042V37.5148H81.6579V51.0156Z" fill="black"/>
<path d="M97.1518 51.0156H99.5959L106.928 40.8515V51.0156H109.274V37.5148H106.791L99.4981 47.6211V37.5148H97.1518V51.0156Z" fill="black"/>
<path d="M120.518 51.2809C119.139 51.2809 117.926 50.9884 116.878 50.4034C115.843 49.8049 115.043 48.9818 114.478 47.9343C113.912 46.8868 113.63 45.7033 113.63 44.3837C113.63 43.1322 113.892 41.9759 114.416 40.9148C114.94 39.8537 115.678 39.0102 116.629 38.3845C117.581 37.7587 118.664 37.4458 119.877 37.4458C120.47 37.4594 120.98 37.5342 121.408 37.6703C121.849 37.8063 122.304 37.99 122.773 38.2212C123.022 38.3573 123.228 38.4593 123.394 38.5273C123.573 38.5817 123.739 38.6089 123.89 38.6089C124.084 38.6089 124.215 38.5613 124.283 38.4661C124.352 38.3709 124.387 38.1736 124.387 37.8743V37.4254L126.373 37.9151C126.428 38.7586 126.228 39.4047 125.773 39.8537C125.332 40.289 124.711 40.5067 123.911 40.5067C123.594 40.5067 123.277 40.459 122.96 40.3638C122.642 40.2686 122.263 40.1257 121.822 39.9353C121.394 39.7448 121.015 39.602 120.684 39.5068C120.367 39.3979 120.043 39.3435 119.712 39.3435C118.636 39.3435 117.746 39.704 117.043 40.425C116.34 41.1324 115.933 42.0915 115.823 43.3022H121.925V45.2204H115.823C115.905 46.023 116.147 46.7372 116.547 47.363C116.96 47.9888 117.505 48.4785 118.181 48.8322C118.857 49.1859 119.636 49.3627 120.518 49.3627C121.636 49.3627 122.58 49.0567 123.353 48.4445C124.125 47.8323 124.621 46.9957 124.842 45.9346L126.725 46.5263C126.573 47.4378 126.207 48.254 125.628 48.975C125.063 49.696 124.332 50.2606 123.435 50.6687C122.553 51.0768 121.58 51.2809 120.518 51.2809Z" fill="black"/>
<path d="M130.674 51.0156H137.068C139.884 51.0156 141.722 49.5691 141.722 47.3125C141.722 45.8853 140.959 44.7667 139.61 44.1495V44.0145C140.685 43.3973 141.252 42.4137 141.252 41.1215C141.252 38.8842 139.473 37.5148 136.599 37.5148H130.674V51.0156ZM133.001 43.2044V39.5207H136.599C138.046 39.5207 138.925 40.2343 138.925 41.3722C138.925 42.4908 138.046 43.2044 136.599 43.2044H133.001ZM133.001 49.0098V45.2296H136.99C138.437 45.2296 139.375 45.9432 139.375 47.1197C139.375 48.2769 138.476 49.0098 136.99 49.0098H133.001Z" fill="black"/>
<path d="M143.967 51.0156H146.431L147.702 47.7176H154.076L155.347 51.0156H157.889L152.492 37.5148H149.364L143.967 51.0156ZM148.425 45.8467L150.85 39.5207H150.889L153.352 45.8467H148.425Z" fill="black"/>
<path d="M30.3758 38.155H30.0413L29.9136 38.4643L19.6572 63.3165L19.4665 63.7787L19.9286 63.9694L20.7415 64.3049L21.2036 64.4956L21.3944 64.0334L31.2987 40.0344H34.6497L44.4467 64.0301L44.6357 64.4931L45.0987 64.304L45.9127 63.9717L46.3756 63.7827L46.1866 63.3198L36.0393 38.466L35.9123 38.155H35.5764H30.3758Z" fill="black" stroke="black"/>
<path d="M30.3758 27.6876H30.0413L29.9136 27.3784L19.6572 2.52617L19.4665 2.06399L19.9286 1.87324L20.7415 1.53778L21.2036 1.34703L21.3944 1.80923L31.2987 25.8083H34.6497L44.4467 1.81251L44.6357 1.3496L45.0987 1.5386L45.9127 1.87099L46.3756 2.05999L46.1866 2.52289L36.0393 27.3766L35.9123 27.6876H35.5764H30.3758Z" fill="black" stroke="black"/>
<path d="M27.6873 30.3759L27.6873 30.0414L27.3781 29.9138L2.52622 19.6572L2.06403 19.4664L1.87328 19.9286L1.53783 20.7415L1.34709 21.2037L1.80927 21.3944L25.808 31.2989L25.808 34.6499L1.81255 44.4471L1.34965 44.6361L1.53865 45.099L1.87103 45.9131L2.06003 46.376L2.52293 46.187L27.3763 36.0395L27.6873 35.9125L27.6873 35.5766L27.6873 30.3759Z" fill="black" stroke="black"/>
<path d="M38.155 30.3759L38.155 30.0414L38.4643 29.9138L63.3161 19.6572L63.7783 19.4665L63.9691 19.9286L64.3045 20.7415L64.4953 21.2037L64.0331 21.3944L40.0343 31.2989L40.0343 34.6499L64.0298 44.4471L64.4927 44.6361L64.3037 45.099L63.9713 45.9131L63.7823 46.376L63.3194 46.187L38.466 36.0395L38.155 35.9125L38.155 35.5766L38.155 30.3759Z" fill="black" stroke="black"/>
</svg>
