<?xml version="1.0" encoding="UTF-8"?>
<svg xmlns="http://www.w3.org/2000/svg" xmlns:xlink="http://www.w3.org/1999/xlink" width="16px" height="16px" viewBox="0 0 16 16" version="1.1">
<g id="surface1">
<rect x="0" y="0" width="16" height="16" style="fill:rgb(100%,100%,100%);fill-opacity:1;stroke:none;"/>
<path style="fill-rule:nonzero;fill:rgb(70.196078%,0%,0%);fill-opacity:1;stroke-width:5;stroke-linecap:butt;stroke-linejoin:miter;stroke:rgb(70.196078%,0%,0%);stroke-opacity:1;stroke-miterlimit:4;" d="M 235.107422 210.449219 L 233.398438 210.449219 L 232.788086 208.984375 L 172.729492 65.917969 L 171.75293 63.598633 L 174.072266 62.62207 L 178.833008 60.668945 L 181.152344 59.814453 L 182.006836 62.011719 L 240.234375 200.439453 L 260.375977 200.439453 L 317.871094 62.011719 L 318.847656 59.814453 L 321.166992 60.668945 L 325.927734 62.62207 L 328.24707 63.598633 L 327.270508 65.917969 L 267.822266 208.984375 L 267.211914 210.449219 Z M 235.107422 210.449219 " transform="matrix(0.032,0,0,0.032,0,0)"/>
<path style="fill-rule:nonzero;fill:rgb(70.196078%,0%,0%);fill-opacity:1;stroke-width:5;stroke-linecap:butt;stroke-linejoin:miter;stroke:rgb(70.196078%,0%,0%);stroke-opacity:1;stroke-miterlimit:4;" d="M 235.107422 289.550781 L 233.398438 289.550781 L 232.788086 291.015625 L 172.729492 434.082031 L 171.75293 436.401367 L 174.072266 437.37793 L 178.833008 439.331055 L 181.152344 440.185547 L 182.006836 437.988281 L 240.234375 299.560547 L 260.375977 299.560547 L 317.871094 437.988281 L 318.847656 440.185547 L 321.166992 439.331055 L 325.927734 437.37793 L 328.24707 436.401367 L 327.270508 434.082031 L 267.822266 291.015625 L 267.211914 289.550781 Z M 235.107422 289.550781 " transform="matrix(0.032,0,0,0.032,0,0)"/>
<path style="fill-rule:nonzero;fill:rgb(70.196078%,0%,0%);fill-opacity:1;stroke-width:5;stroke-linecap:butt;stroke-linejoin:miter;stroke:rgb(70.196078%,0%,0%);stroke-opacity:1;stroke-miterlimit:4;" d="M 210.449219 264.892578 L 210.449219 266.601562 L 208.984375 267.211914 L 65.917969 327.270508 L 63.598633 328.24707 L 62.62207 325.927734 L 60.668945 321.166992 L 59.814453 318.847656 L 62.011719 317.993164 L 200.439453 259.765625 L 200.439453 239.624023 L 62.011719 182.128906 L 59.814453 181.152344 L 60.668945 178.833008 L 62.62207 174.072266 L 63.598633 171.75293 L 65.917969 172.729492 L 208.984375 232.177734 L 210.449219 232.788086 Z M 210.449219 264.892578 " transform="matrix(0.032,0,0,0.032,0,0)"/>
<path style="fill-rule:nonzero;fill:rgb(70.196078%,0%,0%);fill-opacity:1;stroke-width:5;stroke-linecap:butt;stroke-linejoin:miter;stroke:rgb(70.196078%,0%,0%);stroke-opacity:1;stroke-miterlimit:4;" d="M 289.550781 264.892578 L 289.550781 266.601562 L 291.015625 267.211914 L 434.082031 327.270508 L 436.401367 328.24707 L 437.37793 325.927734 L 439.331055 321.166992 L 440.185547 318.847656 L 437.988281 317.993164 L 299.560547 259.765625 L 299.560547 239.624023 L 437.988281 182.128906 L 440.185547 181.152344 L 439.331055 178.833008 L 437.37793 174.072266 L 436.401367 171.75293 L 434.082031 172.729492 L 291.015625 232.177734 L 289.550781 232.788086 Z M 289.550781 264.892578 " transform="matrix(0.032,0,0,0.032,0,0)"/>
</g>
</svg>
